<svg width="147" height="43" viewBox="0 0 147 43" fill="none" xmlns="http://www.w3.org/2000/svg">
<path d="M6.748 27.084C4.732 27.084 2.87467 27 1.176 26.832L1.036 24.144L3.08 23.584V12.916C3.08 12.4307 3.04267 12.1133 2.968 11.964C2.89333 11.796 2.69733 11.6467 2.38 11.516L0.924 10.704L1.092 8.38C3.03333 8.23067 4.66667 8.11867 5.992 8.044C7.31733 7.95067 8.38133 7.904 9.184 7.904C11.76 7.904 13.8227 8.20267 15.372 8.8C16.94 9.39733 18.0787 10.34 18.788 11.628C19.516 12.916 19.88 14.624 19.88 16.752C19.88 19.44 19.264 21.6147 18.032 23.276C16.9307 24.7133 15.4653 25.712 13.636 26.272C11.8253 26.8133 9.52933 27.084 6.748 27.084ZM10.276 23.08C11.844 23.08 13.0853 22.8933 14 22.52C14.168 22.0533 14.3173 21.3253 14.448 20.336C14.5973 19.3467 14.672 18.4227 14.672 17.564C14.672 15.4547 14.2333 13.896 13.356 12.888C12.4973 11.88 11.1813 11.376 9.408 11.376C9.16533 11.376 8.94133 11.3853 8.736 11.404C8.53067 11.4227 8.33467 11.4413 8.148 11.46V22.94C8.89467 23.0333 9.604 23.08 10.276 23.08ZM28.7442 27.336C26.5602 27.336 24.8709 26.6733 23.6762 25.348C22.5002 24.0227 21.9122 22.1933 21.9122 19.86C21.9122 18.236 22.2015 16.8453 22.7802 15.688C23.3589 14.512 24.1802 13.616 25.2442 13C26.3082 12.384 27.5495 12.076 28.9682 12.076C31.0775 12.076 32.6922 12.748 33.8122 14.092C34.9509 15.436 35.4922 17.3493 35.4362 19.832L26.9242 21.4C27.1855 22.184 27.5495 22.7627 28.0162 23.136C28.5015 23.4907 29.1362 23.668 29.9202 23.668C30.4615 23.668 31.1055 23.5933 31.8522 23.444C32.5989 23.276 33.3549 23.052 34.1202 22.772L34.7642 25.544C34.0735 26.0667 33.1775 26.496 32.0762 26.832C30.9749 27.168 29.8642 27.336 28.7442 27.336ZM30.8442 17.48C30.8069 16.7707 30.6015 16.2573 30.2282 15.94C29.8735 15.604 29.3695 15.436 28.7162 15.436C28.1749 15.436 27.6615 15.5107 27.1762 15.66C26.7842 16.5747 26.6069 17.564 26.6442 18.628L30.8442 17.48ZM37.3881 16.192C37.1828 15.688 37.0428 15.3613 36.9681 15.212C36.8934 15.0627 36.7534 14.8573 36.5481 14.596L36.0721 13.98L36.2121 12.356H43.2681L43.5481 14.736L41.9241 15.128L44.4721 22.352L46.9361 15.716C46.9734 15.604 46.9921 15.52 46.9921 15.464C46.9921 15.296 46.9081 15.184 46.7401 15.128L45.4241 14.568L45.6761 12.356H50.9961L51.2761 14.624L45.7321 27.056L41.7001 27.364L37.3881 16.192Z" fill="#00C1C6"/>
<path d="M61.8378 27.392C58.7391 27.392 56.4244 26.608 54.8938 25.04C53.3818 23.472 52.6258 21.092 52.6258 17.9C52.6258 15.828 53.0084 14.036 53.7738 12.524C54.5391 10.9933 55.6311 9.81733 57.0498 8.996C58.4684 8.17467 60.1578 7.764 62.1178 7.764C68.3524 7.764 71.4698 10.9467 71.4698 17.312C71.4698 19.4027 71.0871 21.204 70.3218 22.716C69.5564 24.228 68.4458 25.3853 66.9898 26.188C65.5524 26.9907 63.8351 27.392 61.8378 27.392ZM62.4258 23.528C63.4898 23.528 64.5071 23.2573 65.4778 22.716C65.6831 22.1373 65.8418 21.4187 65.9538 20.56C66.0658 19.6827 66.1218 18.824 66.1218 17.984C66.1218 15.912 65.7298 14.344 64.9458 13.28C64.1804 12.216 63.0511 11.684 61.5578 11.684C60.4938 11.684 59.4671 11.88 58.4778 12.272C58.2724 12.6267 58.1138 13.2147 58.0018 14.036C57.8898 14.8387 57.8338 15.7627 57.8338 16.808C57.8338 18.9733 58.2258 20.6347 59.0098 21.792C59.7938 22.9493 60.9324 23.528 62.4258 23.528ZM72.4227 24.424L74.3827 23.836V10.424C74.3827 10.0133 74.3453 9.752 74.2707 9.64C74.2147 9.50933 74.056 9.36933 73.7947 9.22L72.5627 8.576L72.7027 6.448C73.076 6.37333 73.3653 6.32667 73.5707 6.308C76.0347 5.86 77.752 5.61733 78.7227 5.58C78.9093 6.00933 79.0307 6.49467 79.0867 7.036V22.912C79.0867 23.304 79.1147 23.5653 79.1707 23.696C79.2267 23.8267 79.3853 23.9667 79.6467 24.116L81.0187 24.9L80.9067 27H72.5067L72.4227 24.424ZM86.1897 27.364C84.9204 27.364 83.903 27.0187 83.1377 26.328C82.3724 25.6187 81.9897 24.7133 81.9897 23.612C81.9897 22.1373 82.727 20.98 84.2017 20.14C85.695 19.3 87.8604 18.824 90.6977 18.712C90.6977 17.8347 90.623 17.1907 90.4737 16.78C90.343 16.3507 90.091 16.0613 89.7177 15.912C89.363 15.744 88.8124 15.66 88.0657 15.66C87.3004 15.66 86.759 15.688 86.4417 15.744L85.2937 18.012L83.2217 17.872C82.9044 16.3787 82.6804 14.8293 82.5497 13.224C83.595 12.8693 84.7337 12.5893 85.9657 12.384C87.2164 12.1787 88.383 12.076 89.4657 12.076C91.4444 12.076 92.863 12.468 93.7217 13.252C94.5804 14.0173 95.0097 15.296 95.0097 17.088V22.94C95.0097 23.276 95.0377 23.5093 95.0937 23.64C95.1684 23.7707 95.3177 23.9013 95.5417 24.032L96.6617 24.676L96.5497 26.412C94.3844 26.916 92.6764 27.196 91.4257 27.252C91.3884 27.14 91.3324 26.944 91.2577 26.664C91.183 26.3653 91.1177 26.0853 91.0617 25.824C90.3337 26.2907 89.531 26.664 88.6537 26.944C87.795 27.224 86.9737 27.364 86.1897 27.364ZM88.0657 24.2C88.8124 24.2 89.7177 23.948 90.7817 23.444L90.6697 21.316C90.2217 21.2787 89.923 21.26 89.7737 21.26C89.2697 21.26 88.6817 21.316 88.0097 21.428C87.3377 21.5213 86.8057 21.6333 86.4137 21.764C86.3577 22.0067 86.3297 22.2307 86.3297 22.436C86.3297 22.996 86.479 23.4347 86.7777 23.752C87.095 24.0507 87.5244 24.2 88.0657 24.2ZM98.133 6.28L102.893 5.02L104.069 9.276L99.281 10.564L98.133 6.28ZM100.849 33.356C99.897 32.852 99.169 32.404 98.665 32.012C98.161 31.6387 97.5077 31.0507 96.705 30.248L98.945 27.644V17.032C98.945 16.6213 98.917 16.36 98.861 16.248C98.805 16.1173 98.6463 15.9773 98.385 15.828L97.125 15.156L97.265 13.056C97.5263 13.0187 97.713 12.9813 97.825 12.944C98.0303 12.9067 98.7583 12.776 100.009 12.552C101.278 12.328 102.333 12.1973 103.173 12.16C103.36 12.776 103.518 13.3733 103.649 13.952V23.836C103.649 25.74 103.509 27.3267 103.229 28.596C102.949 29.8653 102.417 31.0693 101.633 32.208L100.849 33.356ZM107.013 6.28L111.773 5.02L112.921 9.276L108.189 10.564L107.013 6.28ZM105.837 24.424L107.797 23.836V17.032C107.797 16.6213 107.759 16.36 107.685 16.248C107.629 16.1173 107.47 15.9773 107.209 15.828L105.977 15.156L106.117 13.056C107.666 12.7573 108.861 12.5427 109.701 12.412C110.559 12.2627 111.343 12.1787 112.053 12.16C112.295 12.9627 112.445 13.56 112.501 13.952V22.912C112.501 23.304 112.529 23.5653 112.585 23.696C112.641 23.8267 112.799 23.9667 113.061 24.116L114.433 24.9L114.321 27H105.921L105.837 24.424ZM120.976 27.364C119.184 27.364 117.784 26.692 116.776 25.348C115.768 24.004 115.264 22.2027 115.264 19.944C115.264 17.3493 115.945 15.3893 117.308 14.064C118.689 12.7387 120.649 12.076 123.188 12.076C123.337 12.076 123.822 12.0947 124.644 12.132V10.452C124.644 10.0413 124.616 9.77067 124.56 9.64C124.504 9.50933 124.345 9.36933 124.084 9.22L122.824 8.576L122.964 6.448C124.756 6.13067 126.081 5.916 126.94 5.804C127.798 5.67333 128.48 5.59867 128.984 5.58C129.152 6.00933 129.273 6.49467 129.348 7.036V22.968C129.348 23.304 129.376 23.5373 129.432 23.668C129.506 23.7987 129.665 23.9293 129.908 24.06L130.972 24.704L130.86 26.44C129.03 26.9067 127.238 27.1867 125.484 27.28C125.353 26.9253 125.222 26.496 125.092 25.992C123.822 26.9067 122.45 27.364 120.976 27.364ZM122.6 23.78C123.216 23.78 123.906 23.5747 124.672 23.164V15.912C124.112 15.6693 123.393 15.548 122.516 15.548C121.806 15.548 121.125 15.6413 120.472 15.828C120.322 16.1827 120.201 16.668 120.108 17.284C120.033 17.9 119.996 18.5813 119.996 19.328C119.996 20.8587 120.201 21.988 120.612 22.716C121.041 23.4253 121.704 23.78 122.6 23.78ZM138.721 27.336C136.537 27.336 134.847 26.6733 133.653 25.348C132.477 24.0227 131.889 22.1933 131.889 19.86C131.889 18.236 132.178 16.8453 132.757 15.688C133.335 14.512 134.157 13.616 135.221 13C136.285 12.384 137.526 12.076 138.945 12.076C141.054 12.076 142.669 12.748 143.789 14.092C144.927 15.436 145.469 17.3493 145.413 19.832L136.901 21.4C137.162 22.184 137.526 22.7627 137.993 23.136C138.478 23.4907 139.113 23.668 139.897 23.668C140.438 23.668 141.082 23.5933 141.829 23.444C142.575 23.276 143.331 23.052 144.097 22.772L144.741 25.544C144.05 26.0667 143.154 26.496 142.053 26.832C140.951 27.168 139.841 27.336 138.721 27.336ZM140.821 17.48C140.783 16.7707 140.578 16.2573 140.205 15.94C139.85 15.604 139.346 15.436 138.693 15.436C138.151 15.436 137.638 15.5107 137.153 15.66C136.761 16.5747 136.583 17.564 136.621 18.628L140.821 17.48Z" fill="white"/>
<path d="M61.385 37.525C61.385 37.925 61.335 38.2833 61.235 38.6C61.1383 38.9167 60.9933 39.185 60.8 39.405C60.61 39.6217 60.375 39.7883 60.095 39.905C59.815 40.0217 59.4933 40.08 59.13 40.08C58.8 40.08 58.4633 40.0333 58.12 39.94C58.1267 39.8433 58.135 39.7483 58.145 39.655C58.155 39.5583 58.1633 39.4633 58.17 39.37C58.1767 39.3133 58.1967 39.2683 58.23 39.235C58.2667 39.1983 58.3217 39.18 58.395 39.18C58.455 39.18 58.5333 39.195 58.63 39.225C58.73 39.255 58.8633 39.27 59.03 39.27C59.25 39.27 59.4467 39.2367 59.62 39.17C59.7933 39.1033 59.9383 39 60.055 38.86C60.1717 38.72 60.26 38.5417 60.32 38.325C60.3833 38.105 60.415 37.845 60.415 37.545V32.835H61.385V37.525ZM65.4832 37.72C65.0732 37.7333 64.7232 37.7667 64.4332 37.82C64.1465 37.87 63.9115 37.9367 63.7282 38.02C63.5482 38.1033 63.4165 38.2017 63.3332 38.315C63.2532 38.4283 63.2132 38.555 63.2132 38.695C63.2132 38.8283 63.2349 38.9433 63.2782 39.04C63.3215 39.1367 63.3799 39.2167 63.4532 39.28C63.5299 39.34 63.6182 39.385 63.7182 39.415C63.8215 39.4417 63.9315 39.455 64.0482 39.455C64.2049 39.455 64.3482 39.44 64.4782 39.41C64.6082 39.3767 64.7299 39.33 64.8432 39.27C64.9599 39.21 65.0699 39.1383 65.1732 39.055C65.2799 38.9717 65.3832 38.8767 65.4832 38.77V37.72ZM62.6082 35.65C62.8882 35.38 63.1899 35.1783 63.5132 35.045C63.8365 34.9117 64.1949 34.845 64.5882 34.845C64.8715 34.845 65.1232 34.8917 65.3432 34.985C65.5632 35.0783 65.7482 35.2083 65.8982 35.375C66.0482 35.5417 66.1615 35.7433 66.2382 35.98C66.3149 36.2167 66.3532 36.4767 66.3532 36.76V40H65.9582C65.8715 40 65.8049 39.9867 65.7582 39.96C65.7115 39.93 65.6749 39.8733 65.6482 39.79L65.5482 39.31C65.4149 39.4333 65.2849 39.5433 65.1582 39.64C65.0315 39.7333 64.8982 39.8133 64.7582 39.88C64.6182 39.9433 64.4682 39.9917 64.3082 40.025C64.1515 40.0617 63.9765 40.08 63.7832 40.08C63.5865 40.08 63.4015 40.0533 63.2282 40C63.0549 39.9433 62.9032 39.86 62.7732 39.75C62.6465 39.64 62.5449 39.5017 62.4682 39.335C62.3949 39.165 62.3582 38.965 62.3582 38.735C62.3582 38.535 62.4132 38.3433 62.5232 38.16C62.6332 37.9733 62.8115 37.8083 63.0582 37.665C63.3049 37.5217 63.6265 37.405 64.0232 37.315C64.4199 37.2217 64.9065 37.1683 65.4832 37.155V36.76C65.4832 36.3667 65.3982 36.07 65.2282 35.87C65.0582 35.6667 64.8099 35.565 64.4832 35.565C64.2632 35.565 64.0782 35.5933 63.9282 35.65C63.7815 35.7033 63.6532 35.765 63.5432 35.835C63.4365 35.9017 63.3432 35.9633 63.2632 36.02C63.1865 36.0733 63.1099 36.1 63.0332 36.1C62.9732 36.1 62.9215 36.085 62.8782 36.055C62.8349 36.0217 62.7982 35.9817 62.7682 35.935L62.6082 35.65ZM71.9415 34.935L69.8765 40H69.0765L67.0115 34.935H67.7365C67.8098 34.935 67.8698 34.9533 67.9165 34.99C67.9632 35.0267 67.9948 35.07 68.0115 35.12L69.2965 38.38C69.3365 38.5033 69.3715 38.6233 69.4015 38.74C69.4315 38.8567 69.4598 38.9733 69.4865 39.09C69.5132 38.9733 69.5415 38.8567 69.5715 38.74C69.6015 38.6233 69.6382 38.5033 69.6815 38.38L70.9815 35.12C71.0015 35.0667 71.0348 35.0233 71.0815 34.99C71.1282 34.9533 71.1832 34.935 71.2465 34.935H71.9415ZM75.3953 37.72C74.9853 37.7333 74.6353 37.7667 74.3453 37.82C74.0586 37.87 73.8236 37.9367 73.6403 38.02C73.4603 38.1033 73.3286 38.2017 73.2453 38.315C73.1653 38.4283 73.1253 38.555 73.1253 38.695C73.1253 38.8283 73.147 38.9433 73.1903 39.04C73.2336 39.1367 73.292 39.2167 73.3653 39.28C73.442 39.34 73.5303 39.385 73.6303 39.415C73.7336 39.4417 73.8436 39.455 73.9603 39.455C74.117 39.455 74.2603 39.44 74.3903 39.41C74.5203 39.3767 74.642 39.33 74.7553 39.27C74.872 39.21 74.982 39.1383 75.0853 39.055C75.192 38.9717 75.2953 38.8767 75.3953 38.77V37.72ZM72.5203 35.65C72.8003 35.38 73.102 35.1783 73.4253 35.045C73.7486 34.9117 74.107 34.845 74.5003 34.845C74.7836 34.845 75.0353 34.8917 75.2553 34.985C75.4753 35.0783 75.6603 35.2083 75.8103 35.375C75.9603 35.5417 76.0736 35.7433 76.1503 35.98C76.227 36.2167 76.2653 36.4767 76.2653 36.76V40H75.8703C75.7836 40 75.717 39.9867 75.6703 39.96C75.6236 39.93 75.587 39.8733 75.5603 39.79L75.4603 39.31C75.327 39.4333 75.197 39.5433 75.0703 39.64C74.9436 39.7333 74.8103 39.8133 74.6703 39.88C74.5303 39.9433 74.3803 39.9917 74.2203 40.025C74.0636 40.0617 73.8886 40.08 73.6953 40.08C73.4986 40.08 73.3136 40.0533 73.1403 40C72.967 39.9433 72.8153 39.86 72.6853 39.75C72.5586 39.64 72.457 39.5017 72.3803 39.335C72.307 39.165 72.2703 38.965 72.2703 38.735C72.2703 38.535 72.3253 38.3433 72.4353 38.16C72.5453 37.9733 72.7236 37.8083 72.9703 37.665C73.217 37.5217 73.5386 37.405 73.9353 37.315C74.332 37.2217 74.8186 37.1683 75.3953 37.155V36.76C75.3953 36.3667 75.3103 36.07 75.1403 35.87C74.9703 35.6667 74.722 35.565 74.3953 35.565C74.1753 35.565 73.9903 35.5933 73.8403 35.65C73.6936 35.7033 73.5653 35.765 73.4553 35.835C73.3486 35.9017 73.2553 35.9633 73.1753 36.02C73.0986 36.0733 73.022 36.1 72.9453 36.1C72.8853 36.1 72.8336 36.085 72.7903 36.055C72.747 36.0217 72.7103 35.9817 72.6803 35.935L72.5203 35.65ZM78.111 40.105C78.0677 40.2217 77.9993 40.3083 77.906 40.365C77.816 40.4217 77.7227 40.45 77.626 40.45H77.251L80.256 32.965C80.296 32.8583 80.356 32.7767 80.436 32.72C80.5193 32.6633 80.6143 32.635 80.721 32.635H81.101L78.111 40.105ZM86.0175 33.955C85.9875 34.005 85.9542 34.0433 85.9175 34.07C85.8842 34.0933 85.8425 34.105 85.7925 34.105C85.7358 34.105 85.6692 34.0767 85.5925 34.02C85.5158 33.9633 85.4192 33.9017 85.3025 33.835C85.1892 33.765 85.0508 33.7017 84.8875 33.645C84.7275 33.5883 84.5325 33.56 84.3025 33.56C84.0858 33.56 83.8942 33.59 83.7275 33.65C83.5642 33.7067 83.4258 33.785 83.3125 33.885C83.2025 33.985 83.1192 34.1033 83.0625 34.24C83.0058 34.3733 82.9775 34.5183 82.9775 34.675C82.9775 34.875 83.0258 35.0417 83.1225 35.175C83.2225 35.305 83.3525 35.4167 83.5125 35.51C83.6758 35.6033 83.8592 35.685 84.0625 35.755C84.2692 35.8217 84.4792 35.8917 84.6925 35.965C84.9092 36.0383 85.1192 36.1217 85.3225 36.215C85.5292 36.305 85.7125 36.42 85.8725 36.56C86.0358 36.7 86.1658 36.8717 86.2625 37.075C86.3625 37.2783 86.4125 37.5283 86.4125 37.825C86.4125 38.1383 86.3592 38.4333 86.2525 38.71C86.1458 38.9833 85.9892 39.2217 85.7825 39.425C85.5792 39.6283 85.3275 39.7883 85.0275 39.905C84.7308 40.0217 84.3925 40.08 84.0125 40.08C83.5458 40.08 83.1225 39.9967 82.7425 39.83C82.3625 39.66 82.0375 39.4317 81.7675 39.145L82.0475 38.685C82.0742 38.6483 82.1058 38.6183 82.1425 38.595C82.1825 38.5683 82.2258 38.555 82.2725 38.555C82.3158 38.555 82.3642 38.5733 82.4175 38.61C82.4742 38.6433 82.5375 38.6867 82.6075 38.74C82.6775 38.7933 82.7575 38.8517 82.8475 38.915C82.9375 38.9783 83.0392 39.0367 83.1525 39.09C83.2692 39.1433 83.4008 39.1883 83.5475 39.225C83.6942 39.2583 83.8592 39.275 84.0425 39.275C84.2725 39.275 84.4775 39.2433 84.6575 39.18C84.8375 39.1167 84.9892 39.0283 85.1125 38.915C85.2392 38.7983 85.3358 38.66 85.4025 38.5C85.4692 38.34 85.5025 38.1617 85.5025 37.965C85.5025 37.7483 85.4525 37.5717 85.3525 37.435C85.2558 37.295 85.1275 37.1783 84.9675 37.085C84.8075 36.9917 84.6242 36.9133 84.4175 36.85C84.2108 36.7833 84.0008 36.7167 83.7875 36.65C83.5742 36.58 83.3642 36.5 83.1575 36.41C82.9508 36.32 82.7675 36.2033 82.6075 36.06C82.4475 35.9167 82.3175 35.7383 82.2175 35.525C82.1208 35.3083 82.0725 35.0417 82.0725 34.725C82.0725 34.4717 82.1208 34.2267 82.2175 33.99C82.3175 33.7533 82.4608 33.5433 82.6475 33.36C82.8375 33.1767 83.0692 33.03 83.3425 32.92C83.6192 32.81 83.9358 32.755 84.2925 32.755C84.6925 32.755 85.0558 32.8183 85.3825 32.945C85.7125 33.0717 86.0025 33.255 86.2525 33.495L86.0175 33.955ZM88.3598 38.78C88.5231 39 88.7014 39.155 88.8948 39.245C89.0881 39.335 89.3048 39.38 89.5448 39.38C90.0181 39.38 90.3814 39.2117 90.6348 38.875C90.8881 38.5383 91.0148 38.0583 91.0148 37.435C91.0148 37.105 90.9848 36.8217 90.9248 36.585C90.8681 36.3483 90.7848 36.155 90.6748 36.005C90.5648 35.8517 90.4298 35.74 90.2698 35.67C90.1098 35.6 89.9281 35.565 89.7248 35.565C89.4348 35.565 89.1798 35.6317 88.9598 35.765C88.7431 35.8983 88.5431 36.0867 88.3598 36.33V38.78ZM88.3148 35.72C88.5281 35.4567 88.7748 35.245 89.0548 35.085C89.3348 34.925 89.6548 34.845 90.0148 34.845C90.3081 34.845 90.5731 34.9017 90.8098 35.015C91.0464 35.125 91.2481 35.29 91.4148 35.51C91.5814 35.7267 91.7098 35.9967 91.7998 36.32C91.8898 36.6433 91.9348 37.015 91.9348 37.435C91.9348 37.8083 91.8848 38.1567 91.7848 38.48C91.6848 38.8 91.5398 39.0783 91.3498 39.315C91.1631 39.5483 90.9331 39.7333 90.6598 39.87C90.3898 40.0033 90.0848 40.07 89.7448 40.07C89.4348 40.07 89.1681 40.0183 88.9448 39.915C88.7248 39.8083 88.5298 39.6617 88.3598 39.475V41.715H87.4648V34.935H87.9998C88.1264 34.935 88.2048 34.9967 88.2348 35.12L88.3148 35.72ZM93.9152 35.95C94.0752 35.6033 94.2719 35.3333 94.5052 35.14C94.7386 34.9433 95.0236 34.845 95.3602 34.845C95.4669 34.845 95.5686 34.8567 95.6652 34.88C95.7652 34.9033 95.8536 34.94 95.9302 34.99L95.8652 35.655C95.8452 35.7383 95.7952 35.78 95.7152 35.78C95.6686 35.78 95.6002 35.77 95.5102 35.75C95.4202 35.73 95.3186 35.72 95.2052 35.72C95.0452 35.72 94.9019 35.7433 94.7752 35.79C94.6519 35.8367 94.5402 35.9067 94.4402 36C94.3436 36.09 94.2552 36.2033 94.1752 36.34C94.0986 36.4733 94.0286 36.6267 93.9652 36.8V40H93.0702V34.935H93.5802C93.6769 34.935 93.7436 34.9533 93.7802 34.99C93.8169 35.0267 93.8419 35.09 93.8552 35.18L93.9152 35.95ZM97.6528 34.935V40H96.7628V34.935H97.6528ZM97.8428 33.345C97.8428 33.4317 97.8245 33.5133 97.7878 33.59C97.7545 33.6633 97.7078 33.73 97.6478 33.79C97.5911 33.8467 97.5228 33.8917 97.4428 33.925C97.3661 33.9583 97.2845 33.975 97.1978 33.975C97.1111 33.975 97.0295 33.9583 96.9528 33.925C96.8795 33.8917 96.8145 33.8467 96.7578 33.79C96.7011 33.73 96.6561 33.6633 96.6228 33.59C96.5895 33.5133 96.5728 33.4317 96.5728 33.345C96.5728 33.2583 96.5895 33.1767 96.6228 33.1C96.6561 33.02 96.7011 32.9517 96.7578 32.895C96.8145 32.835 96.8795 32.7883 96.9528 32.755C97.0295 32.7217 97.1111 32.705 97.1978 32.705C97.2845 32.705 97.3661 32.7217 97.4428 32.755C97.5228 32.7883 97.5911 32.835 97.6478 32.895C97.7078 32.9517 97.7545 33.02 97.7878 33.1C97.8245 33.1767 97.8428 33.2583 97.8428 33.345ZM99.9552 35.67C100.065 35.5467 100.182 35.435 100.305 35.335C100.428 35.235 100.558 35.15 100.695 35.08C100.835 35.0067 100.982 34.9517 101.135 34.915C101.292 34.875 101.46 34.855 101.64 34.855C101.917 34.855 102.16 34.9017 102.37 34.995C102.583 35.085 102.76 35.215 102.9 35.385C103.043 35.5517 103.152 35.7533 103.225 35.99C103.298 36.2267 103.335 36.4883 103.335 36.775V40H102.44V36.775C102.44 36.3917 102.352 36.095 102.175 35.885C102.002 35.6717 101.737 35.565 101.38 35.565C101.117 35.565 100.87 35.6283 100.64 35.755C100.413 35.8817 100.203 36.0533 100.01 36.27V40H99.1152V34.935H99.6502C99.7768 34.935 99.8552 34.9967 99.8852 35.12L99.9552 35.67ZM106.456 37.525C106.636 37.525 106.795 37.5 106.931 37.45C107.068 37.4 107.183 37.33 107.276 37.24C107.37 37.15 107.44 37.0433 107.486 36.92C107.533 36.7933 107.556 36.655 107.556 36.505C107.556 36.195 107.461 35.9483 107.271 35.765C107.085 35.5817 106.813 35.49 106.456 35.49C106.096 35.49 105.821 35.5817 105.631 35.765C105.445 35.9483 105.351 36.195 105.351 36.505C105.351 36.655 105.375 36.7933 105.421 36.92C105.471 37.0433 105.543 37.15 105.636 37.24C105.73 37.33 105.845 37.4 105.981 37.45C106.118 37.5 106.276 37.525 106.456 37.525ZM108.061 40.275C108.061 40.1517 108.026 40.0517 107.956 39.975C107.886 39.8983 107.791 39.8383 107.671 39.795C107.555 39.7517 107.418 39.7217 107.261 39.705C107.105 39.685 106.938 39.67 106.761 39.66C106.588 39.65 106.411 39.64 106.231 39.63C106.051 39.62 105.878 39.6033 105.711 39.58C105.525 39.6667 105.371 39.7767 105.251 39.91C105.135 40.04 105.076 40.1933 105.076 40.37C105.076 40.4833 105.105 40.5883 105.161 40.685C105.221 40.785 105.311 40.87 105.431 40.94C105.551 41.0133 105.701 41.07 105.881 41.11C106.065 41.1533 106.28 41.175 106.526 41.175C106.766 41.175 106.981 41.1533 107.171 41.11C107.361 41.0667 107.521 41.005 107.651 40.925C107.785 40.845 107.886 40.75 107.956 40.64C108.026 40.53 108.061 40.4083 108.061 40.275ZM108.966 35.135V35.465C108.966 35.575 108.896 35.645 108.756 35.675L108.181 35.75C108.295 35.97 108.351 36.2133 108.351 36.48C108.351 36.7267 108.303 36.9517 108.206 37.155C108.113 37.355 107.983 37.5267 107.816 37.67C107.65 37.8133 107.45 37.9233 107.216 38C106.983 38.0767 106.73 38.115 106.456 38.115C106.22 38.115 105.996 38.0867 105.786 38.03C105.68 38.0967 105.598 38.1683 105.541 38.245C105.485 38.3183 105.456 38.3933 105.456 38.47C105.456 38.59 105.505 38.6817 105.601 38.745C105.701 38.805 105.831 38.8483 105.991 38.875C106.151 38.9017 106.333 38.9183 106.536 38.925C106.743 38.9317 106.953 38.9433 107.166 38.96C107.383 38.9733 107.593 38.9983 107.796 39.035C108.003 39.0717 108.186 39.1317 108.346 39.215C108.506 39.2983 108.635 39.4133 108.731 39.56C108.831 39.7067 108.881 39.8967 108.881 40.13C108.881 40.3467 108.826 40.5567 108.716 40.76C108.61 40.9633 108.455 41.1433 108.251 41.3C108.048 41.46 107.798 41.5867 107.501 41.68C107.208 41.7767 106.876 41.825 106.506 41.825C106.136 41.825 105.813 41.7883 105.536 41.715C105.26 41.6417 105.03 41.5433 104.846 41.42C104.663 41.2967 104.525 41.1533 104.431 40.99C104.341 40.83 104.296 40.6617 104.296 40.485C104.296 40.235 104.375 40.0233 104.531 39.85C104.688 39.6767 104.903 39.5383 105.176 39.435C105.026 39.3683 104.906 39.28 104.816 39.17C104.73 39.0567 104.686 38.905 104.686 38.715C104.686 38.6417 104.7 38.5667 104.726 38.49C104.753 38.41 104.793 38.3317 104.846 38.255C104.903 38.175 104.971 38.1 105.051 38.03C105.131 37.96 105.225 37.8983 105.331 37.845C105.081 37.705 104.886 37.52 104.746 37.29C104.606 37.0567 104.536 36.7867 104.536 36.48C104.536 36.2333 104.583 36.01 104.676 35.81C104.773 35.6067 104.906 35.435 105.076 35.295C105.246 35.1517 105.448 35.0417 105.681 34.965C105.918 34.8883 106.176 34.85 106.456 34.85C106.676 34.85 106.881 34.875 107.071 34.925C107.261 34.9717 107.435 35.0417 107.591 35.135H108.966Z" fill="white"/>
<rect x="138" y="33" width="7" height="7" fill="#FF4D1D"/>
<rect x="130" y="33" width="7" height="7" fill="#49D7D0"/>
<rect x="121" y="33" width="7" height="7" fill="#FF4D1D"/>
<rect x="112" y="33" width="7" height="7" fill="#49D7D0"/>
</svg>
